<svg width="30" height="32" viewBox="0 0 30 32" fill="none" xmlns="http://www.w3.org/2000/svg">
<path d="M10.953 28.4412V24.0965C10.9529 22.9955 11.8482 22.1011 12.9571 22.0942H17.0289C18.1428 22.0942 19.0457 22.9906 19.0457 24.0965V24.0965V28.4286C19.0457 29.3836 19.8217 30.1596 20.7835 30.1665H23.5614C24.8588 30.1699 26.1042 29.6605 27.0228 28.7509C27.9414 27.8413 28.4577 26.6062 28.4577 25.3181V12.9765C28.4576 11.9361 27.9931 10.9491 27.1892 10.2815L17.7519 2.78847C16.1022 1.47784 13.7461 1.52018 12.1453 2.88921L2.91095 10.2815C2.06906 10.9294 1.56588 11.9193 1.54102 12.9765V25.3055C1.54102 27.9902 3.73314 30.1665 6.43726 30.1665H9.15176C9.61484 30.1699 10.0601 29.9896 10.3888 29.6657C10.7174 29.3418 10.9022 28.901 10.9022 28.4412H10.953Z" fill="white" stroke="white" stroke-width="2"/>
</svg>
