<svg width="166" height="44" viewBox="0 0 166 44" fill="none" xmlns="http://www.w3.org/2000/svg">
<path d="M33.4503 8.61525C38.7927 8.61525 43.5094 12.0806 43.5094 20.5515V34.0278H35.9049V20.7921C35.9049 17.6155 34.5573 15.209 31.0438 15.209C28.1079 15.209 26.1345 17.8081 25.557 20.1183V34.0278H17.9524V20.7921C17.9524 17.6155 15.9791 15.209 13.0913 15.209C9.96289 15.209 8.08582 17.3268 7.60452 20.1183V34.0278H0V9.00029H7.60452V13.5726C7.70078 12.4175 10.1554 8.61525 15.0647 8.61525C18.6744 8.61525 22.1397 10.5404 24.2093 14.0539C24.7869 12.7063 27.6747 8.61525 33.4503 8.61525ZM60.5474 8.56712C66.2267 8.56712 73.735 12.8507 73.735 21.6103C73.735 30.4181 66.2267 34.5091 60.5474 34.5091C54.8681 34.5091 47.3598 30.4181 47.3598 21.6103C47.3598 12.8507 54.8681 8.56712 60.5474 8.56712ZM60.5474 15.2572C57.6596 15.2572 54.7237 17.4711 54.7237 21.6103C54.7237 25.6051 57.6596 27.8191 60.5474 27.8191C63.4352 27.8191 66.4193 25.6051 66.4193 21.6103C66.4193 17.4711 63.4352 15.2572 60.5474 15.2572ZM90.2917 8.56712C95.971 8.56712 103.479 12.8507 103.479 21.6103C103.479 30.4181 95.971 34.5091 90.2917 34.5091C84.6124 34.5091 77.1041 30.4181 77.1041 21.6103C77.1041 12.8507 84.6124 8.56712 90.2917 8.56712ZM90.2917 15.2572C87.4039 15.2572 84.468 17.4711 84.468 21.6103C84.468 25.6051 87.4039 27.8191 90.2917 27.8191C93.1795 27.8191 96.1635 25.6051 96.1635 21.6103C96.1635 17.4711 93.1795 15.2572 90.2917 15.2572ZM125.619 0H133.224V12.225V34.0278H125.619V31.5251C125.282 32.3914 123.02 34.5091 119.17 34.5091C113.442 34.5091 106.848 30.4181 106.848 21.4659C106.848 12.8507 113.442 8.56712 119.17 8.56712C123.02 8.56712 125.282 10.7811 125.619 11.3105V0ZM120.277 27.8191C123.405 27.8191 125.956 25.6532 125.956 21.4659C125.956 17.423 123.405 15.2572 120.277 15.2572C117.004 15.2572 114.212 17.4711 114.212 21.4659C114.212 25.6051 117.004 27.8191 120.277 27.8191ZM158.444 8.90403H166L150.695 43.1725H143.09L147.711 33.1615L136.881 8.90403H144.438L151.465 24.9794L158.444 8.90403Z" fill="#12AF61"/>
</svg>
