<svg width="67" height="67" viewBox="0 0 67 67" fill="none" xmlns="http://www.w3.org/2000/svg">
<path fill-rule="evenodd" clip-rule="evenodd" d="M23.8176 8.19865C29.917 4.65464 37.4142 4.71658 43.4563 8.36091C49.4391 12.0795 53.0752 18.716 53.0414 25.855C52.9021 32.9472 49.0031 39.6139 44.1294 44.7676C41.3164 47.7555 38.1695 50.3976 34.7532 52.6399C34.4013 52.8434 34.0159 52.9796 33.616 53.0418C33.231 53.0254 32.8562 52.9117 32.5252 52.7109C27.3094 49.3417 22.7336 45.041 19.0179 40.0158C15.9087 35.8211 14.1423 30.7532 13.9585 25.5004C13.9545 18.3477 17.7182 11.7427 23.8176 8.19865ZM27.3422 28.4606C28.3682 30.99 30.79 32.6399 33.4767 32.6399C35.2369 32.6525 36.9289 31.9475 38.1757 30.6819C39.4225 29.4163 40.1205 27.6953 40.1143 25.9023C40.1237 23.1655 38.5125 20.6929 36.0329 19.6389C33.5534 18.5849 30.6947 19.1576 28.7915 21.0894C26.8884 23.0212 26.3162 25.9312 27.3422 28.4606Z" fill="#FAFAFA"/>
<path d="M43.4563 8.36091L43.9842 7.51152L43.9728 7.50461L43.4563 8.36091ZM23.8176 8.19865L23.3152 7.33401L23.3152 7.33401L23.8176 8.19865ZM53.0414 25.855L54.0412 25.8747L54.0413 25.8672L54.0414 25.8598L53.0414 25.855ZM44.1294 44.7676L43.4028 44.0805L43.4013 44.0821L44.1294 44.7676ZM34.7532 52.6399L35.2538 53.5056L35.2782 53.4915L35.3019 53.476L34.7532 52.6399ZM33.616 53.0418L33.5734 54.0409L33.6721 54.0451L33.7697 54.0299L33.616 53.0418ZM32.5252 52.7109L31.9826 53.5508L31.9944 53.5585L32.0064 53.5658L32.5252 52.7109ZM19.0179 40.0158L19.822 39.4213L19.8213 39.4203L19.0179 40.0158ZM13.9585 25.5004L12.9585 25.501L12.9585 25.5182L12.9591 25.5354L13.9585 25.5004ZM33.4767 32.6399L33.4839 31.6399L33.4767 31.6399L33.4767 32.6399ZM27.3422 28.4606L28.2689 28.0847L28.2689 28.0847L27.3422 28.4606ZM38.1757 30.6819L37.4633 29.9801L37.4633 29.9801L38.1757 30.6819ZM40.1143 25.9023L39.1143 25.8989L39.1143 25.9058L40.1143 25.9023ZM36.0329 19.6389L36.4241 18.7186L36.4241 18.7186L36.0329 19.6389ZM28.7915 21.0894L28.0791 20.3876L28.0791 20.3876L28.7915 21.0894ZM43.9728 7.50461C37.6181 3.67178 29.7304 3.60651 23.3152 7.33401L24.32 9.06329C30.1036 5.70276 37.2102 5.76139 42.9398 9.21721L43.9728 7.50461ZM54.0414 25.8598C54.0768 18.3791 50.2668 11.4165 43.9842 7.5116L42.9284 9.21022C48.6113 12.7424 52.0736 19.0529 52.0414 25.8503L54.0414 25.8598ZM44.8559 45.4547C49.819 40.2066 53.8951 33.3132 54.0412 25.8747L52.0416 25.8354C51.9091 32.5813 48.1872 39.0213 43.4028 44.0805L44.8559 45.4547ZM35.3019 53.476C38.784 51.1905 41.991 48.4978 44.8575 45.4531L43.4013 44.0821C40.6417 47.0133 37.5551 49.6048 34.2045 51.8039L35.3019 53.476ZM33.7697 54.0299C34.2924 53.9486 34.7953 53.7707 35.2538 53.5056L34.2526 51.7742C34.0073 51.9161 33.7395 52.0106 33.4622 52.0537L33.7697 54.0299ZM32.0064 53.5658C32.4807 53.8536 33.0193 54.0173 33.5734 54.0409L33.6585 52.0427C33.4428 52.0336 33.2316 51.9698 33.0439 51.8559L32.0064 53.5658ZM18.2139 40.6103C22.0007 45.7318 26.6649 50.1158 31.9826 53.5508L33.0678 51.8709C27.9539 48.5675 23.4665 44.3502 19.822 39.4213L18.2139 40.6103ZM12.9591 25.5354C13.1499 30.9891 14.9839 36.2527 18.2145 40.6113L19.8213 39.4203C16.8335 35.3894 15.1346 30.5173 14.9579 25.4654L12.9591 25.5354ZM23.3152 7.33401C16.9023 11.0602 12.9543 17.9979 12.9585 25.501L14.9585 25.4999C14.9547 18.6974 18.5341 12.4251 24.32 9.06329L23.3152 7.33401ZM33.4767 31.6399C31.2056 31.6399 29.1451 30.2448 28.2689 28.0847L26.4155 28.8365C27.5913 31.7352 30.3743 33.6399 33.4767 33.6399L33.4767 31.6399ZM37.4633 29.9801C36.4042 31.0552 34.9709 31.6506 33.4839 31.6399L33.4695 33.6399C35.5028 33.6545 37.4535 32.8398 38.888 31.3837L37.4633 29.9801ZM39.1143 25.9058C39.1196 27.4377 38.523 28.9044 37.4633 29.9801L38.888 31.3837C40.3219 29.9282 41.1215 27.9529 41.1143 25.8988L39.1143 25.9058ZM35.6417 20.5592C37.7434 21.4525 39.1224 23.5561 39.1143 25.8989L41.1143 25.9057C41.125 22.775 39.2816 19.9332 36.4241 18.7186L35.6417 20.5592ZM29.5039 21.7912C31.1214 20.1493 33.5433 19.6672 35.6417 20.5592L36.4241 18.7186C33.5635 17.5026 30.2679 18.1658 28.0791 20.3876L29.5039 21.7912ZM28.2689 28.0847C27.3916 25.9219 27.8832 23.4363 29.5039 21.7912L28.0791 20.3876C25.8935 22.6061 25.2408 25.9404 26.4155 28.8365L28.2689 28.0847Z" fill="#FAFAFA"/>
<ellipse opacity="0.4" cx="33.5003" cy="58.6252" rx="13.9583" ry="2.79167" fill="#FAFAFA"/>
</svg>
